<mxfile host="drawio-plugin" modified="2021-04-30T10:06:29.188Z" agent="5.0 (Macintosh; Intel Mac OS X 10_16_0) AppleWebKit/537.36 (KHTML, like Gecko) Chrome/84.0.4147.105 Safari/537.36" version="13.7.9" etag="sFS2ywmBCzZoe3LuVpCT" type="embed"><diagram id="b93U2qvbwvw3Fi2_gZDH" name="SD"><mxGraphModel dx="1815" dy="614" grid="0" gridSize="10" guides="1" tooltips="1" connect="1" arrows="1" fold="1" page="0" pageScale="1" pageWidth="850" pageHeight="1100" math="0" shadow="0"><root><mxCell id="0"/><mxCell id="1" parent="0"/><mxCell id="35" value="alt&amp;nbsp;" style="shape=umlFrame;whiteSpace=wrap;html=1;" vertex="1" parent="1"><mxGeometry x="38" y="507" width="1017" height="181" as="geometry"/></mxCell><mxCell id="31" value="alt&amp;nbsp;" style="shape=umlFrame;whiteSpace=wrap;html=1;" vertex="1" parent="1"><mxGeometry x="37" y="376" width="1018" height="78" as="geometry"/></mxCell><mxCell id="11" value="alt&amp;nbsp;" style="shape=umlFrame;whiteSpace=wrap;html=1;" vertex="1" parent="1"><mxGeometry x="-155" y="187" width="591" height="139" as="geometry"/></mxCell><mxCell id="9" value=":Reservation" style="shape=umlLifeline;perimeter=lifelinePerimeter;whiteSpace=wrap;html=1;container=1;collapsible=0;recursiveResize=0;outlineConnect=0;" vertex="1" parent="1"><mxGeometry x="18" y="120" width="191" height="845" as="geometry"/></mxCell><mxCell id="10" value="" style="html=1;points=[];perimeter=orthogonalPerimeter;" vertex="1" parent="9"><mxGeometry x="90.5" y="46.5" width="10" height="500.5" as="geometry"/></mxCell><mxCell id="16" value="&lt;span&gt;[ check deposit after 2 weeks]&lt;/span&gt;" style="text;html=1;align=center;verticalAlign=middle;resizable=0;points=[];autosize=1;" vertex="1" parent="9"><mxGeometry x="-86" y="70" width="168" height="18" as="geometry"/></mxCell><mxCell id="3" value=":Reminder" style="shape=umlLifeline;perimeter=lifelinePerimeter;whiteSpace=wrap;html=1;container=1;collapsible=0;recursiveResize=0;outlineConnect=0;" vertex="1" parent="1"><mxGeometry x="490" y="115" width="100" height="897" as="geometry"/></mxCell><mxCell id="5" value="" style="html=1;points=[];perimeter=orthogonalPerimeter;" vertex="1" parent="3"><mxGeometry x="45" y="242" width="10" height="48" as="geometry"/></mxCell><mxCell id="4" value=":SendMail" style="shape=umlLifeline;perimeter=lifelinePerimeter;whiteSpace=wrap;html=1;container=1;collapsible=0;recursiveResize=0;outlineConnect=0;" vertex="1" parent="1"><mxGeometry x="700" y="115" width="100" height="965" as="geometry"/></mxCell><mxCell id="7" value="" style="html=1;verticalAlign=bottom;endArrow=block;" edge="1" parent="1" source="9" target="12"><mxGeometry width="80" relative="1" as="geometry"><mxPoint x="170" y="480" as="sourcePoint"/><mxPoint x="250" y="480" as="targetPoint"/><Array as="points"><mxPoint x="238" y="229"/></Array></mxGeometry></mxCell><mxCell id="8" value="send reminder mail&amp;nbsp;" style="html=1;verticalAlign=bottom;endArrow=block;" edge="1" parent="1" target="4"><mxGeometry width="80" relative="1" as="geometry"><mxPoint x="546" y="387" as="sourcePoint"/><mxPoint x="749.5" y="424.03999999999996" as="targetPoint"/></mxGeometry></mxCell><mxCell id="12" value=":PaymentCheck" style="shape=umlLifeline;perimeter=lifelinePerimeter;whiteSpace=wrap;html=1;container=1;collapsible=0;recursiveResize=0;outlineConnect=0;" vertex="1" parent="1"><mxGeometry x="250" y="120" width="100" height="923" as="geometry"/></mxCell><mxCell id="17" value="" style="html=1;points=[];perimeter=orthogonalPerimeter;" vertex="1" parent="12"><mxGeometry x="45" y="103" width="10" height="212" as="geometry"/></mxCell><mxCell id="24" value="" style="html=1;points=[];perimeter=orthogonalPerimeter;" vertex="1" parent="12"><mxGeometry x="45" y="436" width="10" height="80" as="geometry"/></mxCell><mxCell id="19" value="" style="html=1;verticalAlign=bottom;endArrow=block;" edge="1" parent="1" source="9" target="3"><mxGeometry width="80" relative="1" as="geometry"><mxPoint x="148" y="268" as="sourcePoint"/><mxPoint x="228" y="268" as="targetPoint"/><Array as="points"><mxPoint x="123" y="356"/></Array></mxGeometry></mxCell><mxCell id="20" value="return no" style="html=1;verticalAlign=bottom;endArrow=open;dashed=1;endSize=8;exitX=-0.417;exitY=0.281;exitDx=0;exitDy=0;exitPerimeter=0;" edge="1" parent="1"><mxGeometry relative="1" as="geometry"><mxPoint x="293.3300000000004" y="316.0019999999999" as="sourcePoint"/><mxPoint x="115.66666666666652" y="316.0019999999999" as="targetPoint"/></mxGeometry></mxCell><mxCell id="21" value="start the reminder" style="text;html=1;align=center;verticalAlign=middle;resizable=0;points=[];autosize=1;" vertex="1" parent="1"><mxGeometry x="350" y="330" width="104" height="18" as="geometry"/></mxCell><mxCell id="23" value="check" style="text;html=1;align=center;verticalAlign=middle;resizable=0;points=[];autosize=1;" vertex="1" parent="1"><mxGeometry x="184" y="203" width="41" height="18" as="geometry"/></mxCell><mxCell id="25" value="check" style="html=1;verticalAlign=bottom;endArrow=block;exitX=0.15;exitY=0.731;exitDx=0;exitDy=0;exitPerimeter=0;" edge="1" parent="1"><mxGeometry width="80" relative="1" as="geometry"><mxPoint x="117" y="573.8095" as="sourcePoint"/><mxPoint x="306.5000000000002" y="573.8095" as="targetPoint"/></mxGeometry></mxCell><mxCell id="26" value="return no" style="html=1;verticalAlign=bottom;endArrow=open;dashed=1;endSize=8;entryX=0.983;entryY=0.861;entryDx=0;entryDy=0;entryPerimeter=0;" edge="1" parent="1"><mxGeometry relative="1" as="geometry"><mxPoint x="306.5000000000002" y="628.9945000000001" as="sourcePoint"/><mxPoint x="125.33000000000015" y="628.9945000000001" as="targetPoint"/></mxGeometry></mxCell><mxCell id="28" value=":Cancle" style="shape=umlLifeline;perimeter=lifelinePerimeter;whiteSpace=wrap;html=1;container=1;collapsible=0;recursiveResize=0;outlineConnect=0;" vertex="1" parent="1"><mxGeometry x="927" y="115" width="100" height="631" as="geometry"/></mxCell><mxCell id="27" value="cancle" style="html=1;verticalAlign=bottom;endArrow=block;" edge="1" parent="1" source="10" target="28"><mxGeometry width="80" relative="1" as="geometry"><mxPoint x="168" y="569" as="sourcePoint"/><mxPoint x="248" y="569" as="targetPoint"/><Array as="points"><mxPoint x="385" y="659"/><mxPoint x="851" y="659"/></Array></mxGeometry></mxCell><mxCell id="30" value="cancle" style="html=1;verticalAlign=bottom;endArrow=block;" edge="1" parent="1" source="12" target="28"><mxGeometry width="80" relative="1" as="geometry"><mxPoint x="312" y="407" as="sourcePoint"/><mxPoint x="829" y="447" as="targetPoint"/><Array as="points"><mxPoint x="320" y="430"/></Array></mxGeometry></mxCell><mxCell id="32" value="[ check deposit after 5 days]" style="text;html=1;align=center;verticalAlign=middle;resizable=0;points=[];autosize=1;" vertex="1" parent="1"><mxGeometry x="125.5" y="383" width="159" height="18" as="geometry"/></mxCell><mxCell id="34" value="return reminder have been sended" style="html=1;verticalAlign=bottom;endArrow=open;dashed=1;endSize=8;" edge="1" parent="1"><mxGeometry relative="1" as="geometry"><mxPoint x="535" y="394" as="sourcePoint"/><mxPoint x="305" y="394" as="targetPoint"/></mxGeometry></mxCell><mxCell id="36" value="[ check remaining after 8 weeks and before rental start]" style="text;html=1;align=center;verticalAlign=middle;resizable=0;points=[];autosize=1;" vertex="1" parent="1"><mxGeometry x="129" y="519" width="303" height="18" as="geometry"/></mxCell><mxCell id="37" value="return yes" style="html=1;verticalAlign=bottom;endArrow=open;dashed=1;endSize=8;" edge="1" parent="1"><mxGeometry relative="1" as="geometry"><mxPoint x="299" y="247" as="sourcePoint"/><mxPoint x="116" y="247" as="targetPoint"/></mxGeometry></mxCell><mxCell id="38" value="stop check deposit" style="html=1;verticalAlign=bottom;endArrow=block;" edge="1" parent="1" source="10" target="17"><mxGeometry width="80" relative="1" as="geometry"><mxPoint x="112" y="261" as="sourcePoint"/><mxPoint x="192" y="261" as="targetPoint"/><Array as="points"><mxPoint x="220" y="281"/></Array></mxGeometry></mxCell><mxCell id="39" value="return yes" style="html=1;verticalAlign=bottom;endArrow=open;dashed=1;endSize=8;entryX=0.983;entryY=0.861;entryDx=0;entryDy=0;entryPerimeter=0;" edge="1" parent="1"><mxGeometry relative="1" as="geometry"><mxPoint x="295" y="592" as="sourcePoint"/><mxPoint x="113.91000000000015" y="592.0045000000002" as="targetPoint"/></mxGeometry></mxCell><mxCell id="40" value="stop check" style="html=1;verticalAlign=bottom;endArrow=block;exitX=0.15;exitY=0.731;exitDx=0;exitDy=0;exitPerimeter=0;" edge="1" parent="1"><mxGeometry width="80" relative="1" as="geometry"><mxPoint x="115.00000000000023" y="611.9994999999999" as="sourcePoint"/><mxPoint x="304.5" y="611.9994999999999" as="targetPoint"/></mxGeometry></mxCell></root></mxGraphModel></diagram></mxfile>